<svg width="80" height="35" viewBox="0 0 80 35" fill="none" xmlns="http://www.w3.org/2000/svg">
<path fill-rule="evenodd" clip-rule="evenodd" d="M50.5549 15.9557C54.2806 18.8904 60.8237 25.5817 54.8369 29.7365C51.0271 32.3796 44.4247 32.5694 40.9325 29.231C36.5559 25.0468 40.1747 19.2901 43.775 16.099C44.8111 15.18 45.927 14.3424 47.0943 13.5653C48.2916 14.296 49.4518 15.0868 50.5549 15.9557M79.3171 1.69821C68.6027 1.79471 57.0425 4.40775 47.5967 9.93125C45.426 8.75684 43.2807 7.8086 41.4298 7.10887C30.6768 3.04489 17.3095 2.09732 6.12917 4.91786C4.90748 5.2265 4.79886 6.74795 5.49839 7.5116C5.06067 7.1332 4.6275 6.7493 4.19887 6.35989C5.25916 5.28318 6.4545 4.40716 7.85329 3.69326C8.7082 3.2573 9.74027 3.04037 10.5467 2.54661C11.0271 2.25264 10.9341 1.86199 11.5011 1.61292C11.682 1.53349 11.7211 1.2444 11.4895 1.19493C10.8555 1.05995 10.5651 0.595735 9.92529 0.487333C8.91752 0.316143 7.23569 0.896777 6.32572 1.24173C4.05947 2.10082 2.10386 3.54358 0.452714 5.29803C-0.23668 6.03103 -0.0939147 7.08479 0.544151 7.7842C2.10811 9.49905 3.91556 10.9921 5.79421 12.3485C7.42213 13.5232 9.1956 14.963 11.1965 15.3436C12.7651 15.6429 13.7568 13.7949 12.6399 12.6516C11.2772 11.2561 9.32679 10.4622 7.7449 9.31434C7.06663 8.82228 6.42296 8.29633 5.79009 7.75815C6.01721 7.89587 6.29231 7.97083 6.61368 7.94766C16.9966 7.19856 26.8444 6.20742 37.0388 9.18169C39.543 9.91124 41.9952 10.8593 44.3318 12.0326C44.1359 12.1697 43.9322 12.2994 43.7372 12.4397C37.3375 17.064 31.5635 27.1472 40.3031 32.8031C46.5057 36.8185 60.2707 35.1633 60.5314 25.8705C60.6982 19.9331 55.8464 15.0562 50.4033 11.5829C53.3793 9.97365 56.5407 8.65197 59.5711 7.42432C65.888 4.86416 72.6036 3.19774 79.3273 2.13182C79.5938 2.08932 79.6053 1.6954 79.3171 1.69821" fill="black"/>
</svg>
