<svg width="68" height="67" viewBox="0 0 68 67" fill="none" xmlns="http://www.w3.org/2000/svg">
<path d="M36.9495 59.383C37.1613 59.9456 37.7296 60.2912 38.3266 60.2205C38.9236 60.1497 39.3953 59.6809 39.4698 59.0843C40.2656 52.7063 45.603 38.208 60.4512 31.7446C61.0188 31.4976 61.3353 30.8862 61.2093 30.2801C61.0832 29.674 60.5493 29.2395 59.9303 29.2391C52.5399 29.2348 46.4867 25.8134 41.8773 21.4349C37.2578 17.0468 34.1736 11.7721 32.7645 8.29809C32.5411 7.74735 31.9743 7.41664 31.3849 7.49319C30.7955 7.56974 30.332 8.03426 30.2567 8.62379C27.9797 26.4534 15.3139 34.2494 9.44123 35.9078C8.8264 36.0814 8.42717 36.6741 8.49727 37.3091C8.56737 37.9441 9.08625 38.4354 9.72415 38.4707C16.2673 38.8332 30.9815 43.5309 36.9495 59.383Z" fill="#B3B3B3"/>
<path d="M27.7097 6.77871C27.7833 6.53623 27.9938 6.35406 28.2517 6.32057C28.5462 6.28254 28.8292 6.44819 28.9408 6.72342C30.3804 10.2726 33.514 15.6283 38.2092 20.0884C42.8993 24.5436 49.1056 28.0672 56.712 28.0716C57.0214 28.0718 57.2881 28.2896 57.3512 28.5925C57.4142 28.8955 57.2565 29.2015 56.9729 29.3251C42.3165 35.7049 36.7653 49.7482 35.693 56.5481L35.6035 57.1833C35.5661 57.4814 35.3302 57.7151 35.032 57.7505C34.7335 57.7859 34.4495 57.6135 34.3436 57.3323L34.051 56.5824C27.9863 41.5059 14.066 36.6692 7.19485 36.0454L6.54219 35.9978C6.22341 35.98 5.96428 35.7344 5.92918 35.417C5.89414 35.0996 6.09361 34.8036 6.4009 34.7167C12.4724 33.0022 25.3709 25.0266 27.6876 6.8861L27.7097 6.77871Z" fill="#FC75FF" stroke="black" stroke-width="1.30707" stroke-linejoin="round"/>
<path d="M42.6302 30.9444C36.1356 34.9157 33.6874 41.902 33.0039 45.1435C30.8366 40.9971 25.2771 34.4004 20.3448 33.7337C22.3099 33.0756 27.3092 27.0548 29.6562 19.6219C33.907 27.1241 39.9426 30.2203 42.6302 30.9444Z" fill="white" stroke="black" stroke-width="1.30707" stroke-linecap="round" stroke-linejoin="round"/>
</svg>
