<svg width="71" height="61" viewBox="0 0 71 61" fill="none" xmlns="http://www.w3.org/2000/svg">
<path d="M64.613 39.5706C65.3813 39.4494 65.3816 39.4494 65.3816 39.4489L65.3809 39.4478C65.3807 39.4467 65.3803 39.4452 65.38 39.4435C65.3794 39.4399 65.3789 39.435 65.3779 39.4287C65.3758 39.4162 65.373 39.3981 65.3691 39.3748C65.3611 39.3281 65.3486 39.2599 65.3325 39.1719C65.3002 38.9958 65.2512 38.7391 65.182 38.4128C65.0436 37.7604 64.8253 36.8273 64.5053 35.6938C63.8655 33.4279 62.8157 30.3512 61.1731 27.1132C57.8934 20.6484 52.1995 13.443 42.608 10.873C33.0165 8.30303 24.4828 11.696 18.4101 15.6549C15.3685 17.6378 12.9211 19.7774 11.2341 21.4198C10.3901 22.2415 9.73455 22.9404 9.28849 23.4361C9.06538 23.6841 8.89465 23.882 8.77863 24.0184C8.72071 24.0864 8.67571 24.1393 8.64546 24.1758C8.63045 24.1939 8.61892 24.2082 8.61087 24.2181C8.60689 24.2229 8.60392 24.227 8.60167 24.2298C8.60057 24.2311 8.59945 24.2322 8.59878 24.233L8.59758 24.2337C8.59732 24.2341 8.60218 24.238 9.2024 24.7234M64.613 39.5706L65.2175 40.0611L65.2163 40.0618C65.2157 40.0627 65.2145 40.0638 65.2134 40.0651C65.2112 40.0679 65.2082 40.0719 65.2042 40.0768C65.1962 40.0867 65.1847 40.1009 65.1697 40.1191C65.1394 40.1556 65.0945 40.2083 65.0365 40.2765C64.9205 40.4129 64.7497 40.6108 64.5266 40.8587C64.0805 41.3545 63.425 42.0534 62.581 42.875C60.894 44.5175 58.4466 46.6571 55.405 48.64C49.3323 52.5988 40.7988 55.9909 31.2073 53.4209C21.6159 50.8508 15.9217 43.6465 12.642 37.1817C10.9994 33.9436 9.94964 30.8669 9.30986 28.6011C8.98981 27.4675 8.77154 26.5345 8.6331 25.8821C8.56386 25.5558 8.51494 25.2991 8.48266 25.123C8.46652 25.035 8.45399 24.9668 8.44604 24.92C8.44208 24.8968 8.43929 24.8787 8.43723 24.8661C8.43621 24.8599 8.43568 24.8549 8.43511 24.8514C8.43482 24.8496 8.4344 24.8482 8.43423 24.8471L8.43354 24.8459L9.2024 24.7234M64.613 39.5706L65.2178 40.0602C65.3562 39.8891 65.4156 39.6673 65.3813 39.4499L64.613 39.5706ZM9.2024 24.7234L8.4338 24.845C8.39952 24.6276 8.45899 24.4058 8.59733 24.2347L9.2024 24.7234Z" fill="#B3B3B3" stroke="#B3B3B3" stroke-width="1.55568" stroke-linejoin="round"/>
<path d="M62.2081 35.4066C62.9764 35.2855 62.9767 35.2855 62.9767 35.285L62.976 35.2838C62.9758 35.2827 62.9754 35.2813 62.9751 35.2795C62.9745 35.276 62.974 35.2711 62.973 35.2648C62.9709 35.2523 62.9681 35.2341 62.9642 35.2109C62.9562 35.1641 62.9437 35.096 62.9275 35.008C62.8953 34.8319 62.8463 34.5751 62.7771 34.2488C62.6387 33.5965 62.4204 32.6634 62.1003 31.5299C61.4606 29.264 60.4108 26.1873 58.7682 22.9493C55.4885 16.4844 49.7946 9.27911 40.2031 6.70907C30.6116 4.13909 22.0779 7.53204 16.0052 11.491C12.9636 13.4738 10.5162 15.6135 8.82916 17.2559C7.98522 18.0775 7.32964 18.7765 6.88358 19.2722C6.66047 19.5202 6.48974 19.718 6.37372 19.8544C6.31581 19.9225 6.2708 19.9753 6.24055 20.0118C6.22554 20.03 6.21401 20.0443 6.20596 20.0541C6.20199 20.059 6.19901 20.0631 6.19677 20.0658C6.19566 20.0672 6.19454 20.0683 6.19387 20.0691L6.19267 20.0698C6.19242 20.0702 6.19728 20.074 6.79749 20.5594M62.2081 35.4066L62.8126 35.8972L62.8114 35.8979C62.8107 35.8987 62.8096 35.8998 62.8085 35.9012C62.8063 35.9039 62.8033 35.908 62.7993 35.9128C62.7913 35.9227 62.7798 35.937 62.7647 35.9551C62.7345 35.9917 62.6896 36.0444 62.6316 36.1126C62.5156 36.2489 62.3448 36.4468 62.1217 36.6948C61.6756 37.1905 61.0201 37.8895 60.1761 38.7111C58.4891 40.3535 56.0417 42.4931 53.0001 44.476C46.9274 48.4349 38.3939 51.827 28.8024 49.257C19.211 46.6869 13.5168 39.4826 10.2371 33.0177C8.59448 29.7797 7.54473 26.703 6.90495 24.4371C6.5849 23.3036 6.36663 22.3705 6.22819 21.7182C6.15895 21.3919 6.11004 21.1351 6.07775 20.959C6.06162 20.871 6.04908 20.8029 6.04113 20.7561C6.03717 20.7328 6.03438 20.7147 6.03232 20.7022C6.0313 20.6959 6.03077 20.691 6.0302 20.6875C6.02992 20.6857 6.0295 20.6843 6.02933 20.6832L6.02864 20.682L6.79749 20.5594M62.2081 35.4066L62.8129 35.8963C62.9513 35.7251 63.0107 35.5033 62.9764 35.2859L62.2081 35.4066ZM6.79749 20.5594L6.02889 20.681C5.99461 20.4637 6.05408 20.2418 6.19242 20.0707L6.79749 20.5594Z" fill="#44E2F8" stroke="black" stroke-width="1.55568" stroke-linejoin="round"/>
<path d="M37.4553 13.5517C44.6239 15.1532 48.9019 22.7722 47.1866 30.451C45.4711 38.13 38.3575 43.2039 31.1888 41.6025C24.0202 40.0009 19.742 32.382 21.4575 24.7032C23.173 17.0244 30.2868 11.9504 37.4553 13.5517Z" fill="white" stroke="black" stroke-width="1.55568" stroke-linecap="round" stroke-linejoin="round"/>
<path d="M36.2652 18.4762C40.8393 19.4982 43.6587 24.1294 42.6191 28.7833C41.5793 33.437 37.0572 36.4273 32.4832 35.4056C27.9091 34.3837 25.0886 29.7531 26.1281 25.0992C27.1678 20.4453 31.691 17.4543 36.2652 18.4762Z" fill="#FC75FF" stroke="black" stroke-width="1.55568" stroke-linecap="round" stroke-linejoin="round"/>
<ellipse cx="34.0584" cy="26.1996" rx="3.81325" ry="3.92484" transform="rotate(12.5931 34.0584 26.1996)" fill="black"/>
</svg>
