<svg width="53" height="58" viewBox="0 0 53 58" fill="none" xmlns="http://www.w3.org/2000/svg">
<path d="M4.42061 56.2423C4.39443 56.6996 4.59482 57.1405 4.95655 57.4215C5.31828 57.7025 5.79507 57.7876 6.23168 57.6492L22.6899 52.4294C22.965 52.3422 23.2061 52.1716 23.3801 51.9414L50.109 16.5541C50.4033 16.1644 50.472 15.6489 50.2899 15.1957C48.5431 10.8489 45.1927 7.6593 41.6357 5.602C38.0982 3.556 34.2122 2.54661 31.2356 2.70261C30.8091 2.72496 30.4165 2.94177 30.1704 3.29081L5.67374 38.0382C5.52384 38.2508 5.43651 38.5012 5.42164 38.7609L4.42061 56.2423Z" fill="#B3B3B3"/>
<path d="M28.3464 0.762518C31.1601 0.615086 34.9134 1.57504 38.3615 3.56936C41.8195 5.56935 45.0434 8.65208 46.7185 12.8205C46.8093 13.0468 46.7748 13.3043 46.6279 13.499L19.8984 48.8868C19.8115 49.0016 19.6915 49.0872 19.5543 49.1308L3.09586 54.3499C2.87763 54.4191 2.63904 54.377 2.4582 54.2366C2.27745 54.0962 2.17675 53.8758 2.18968 53.6473L3.19118 36.1656L3.20372 36.0692C3.22265 35.9742 3.26078 35.8838 3.31696 35.8041L27.8142 1.0564L27.8628 0.994203C27.9857 0.856326 28.1598 0.772299 28.3464 0.762518Z" fill="white" stroke="black" stroke-width="1.39241" stroke-linejoin="round"/>
<path d="M28.383 1.45784L3.88628 36.2052C6.98656 36.6092 14.4184 39.6271 19.3435 48.4669L46.0724 13.0796C42.8655 5.09965 33.6842 1.18001 28.383 1.45784Z" fill="#FF5757"/>
<path d="M24.2341 6.62203C29.2799 6.49445 33.3579 8.47406 36.3877 10.9743C39.4085 13.4671 41.4158 16.4992 42.3496 18.5604C42.4548 18.7927 42.4249 19.0642 42.2713 19.2676L19.8991 48.8863C19.7567 49.0749 19.5283 49.1789 19.2926 49.1616C19.0569 49.1443 18.8463 49.0081 18.7329 48.8008C14.0659 40.2658 6.74934 37.3108 3.78948 36.8946C3.54928 36.8609 3.34402 36.7046 3.24761 36.482C3.15124 36.2594 3.17797 36.0028 3.31772 35.8046L23.6824 6.91693L23.7338 6.85263C23.8609 6.71133 24.0417 6.62689 24.2341 6.62203Z" fill="#F8D044" stroke="black" stroke-width="1.39241" stroke-linejoin="round"/>
<path d="M3.38565 44.9461L2.88514 53.6868L11.1143 51.0769C8.41097 47.3842 4.83548 45.4511 3.38565 44.9461Z" fill="black"/>
<path d="M17.5218 46.1224L40.4561 15.6507" stroke="black" stroke-width="1.39241" stroke-linecap="round" stroke-linejoin="round"/>
<path d="M9.98762 39.5454L31.4798 8.26701" stroke="black" stroke-width="1.39241" stroke-linecap="round" stroke-linejoin="round"/>
</svg>
